<svg width="83" height="35" viewBox="0 0 83 35" fill="none" xmlns="http://www.w3.org/2000/svg">
<path d="M64.0728 34.9532C75.2514 34.9532 82.8422 30.9946 82.8422 21.278C82.8422 11.5163 75.2514 7.55774 64.0728 7.55774C52.8482 7.55774 45.3037 11.5163 45.3037 21.278C45.3037 30.9946 52.8482 34.9532 64.0728 34.9532ZM64.0728 28.5205C56.7584 28.5205 53.1702 26.7661 53.1702 21.278C53.1702 15.7449 56.7584 13.9905 64.0728 13.9905C71.3416 13.9905 74.9295 15.7449 74.9295 21.278C74.9295 26.7661 71.3416 28.5205 64.0728 28.5205Z" fill="#EC4D19"/>
<path d="M34.8636 21.9857C34.6761 24.4508 29.053 27.8138 20.8994 27.8138C9.98111 27.8138 8.43476 21.6743 8.43476 17.7207C8.43476 13.8138 9.93425 7.81377 20.8994 7.81377C29.8027 7.81377 32.052 11.4882 32.5206 13.9533H41.0959C40.5804 5.86028 34.0201 0.790527 20.8994 0.790527C7.40382 0.790527 0 6.74404 0 17.5347C0 28.3254 7.40383 34.2789 19.4936 34.2789C26.4757 34.2789 31.7708 29.9975 34.8636 26.6486V33.8138H41.0959V16.3719L30.2812 18.8064L34.8636 21.9857Z" fill="#EC4D19"/>
</svg>
